<svg width="39" height="39" viewBox="0 0 39 39" fill="none" xmlns="http://www.w3.org/2000/svg">
<path d="M19.8575 3.25H19.1425C18.2805 3.25 17.4539 3.59241 16.8444 4.2019C16.2349 4.8114 15.8925 5.63805 15.8925 6.5V6.7925C15.8919 7.36243 15.7415 7.92218 15.4563 8.41561C15.171 8.90904 14.7611 9.31879 14.2675 9.60375L13.5688 10.01C13.0747 10.2952 12.5142 10.4454 11.9438 10.4454C11.3733 10.4454 10.8128 10.2952 10.3188 10.01L10.075 9.88C9.32923 9.4498 8.44324 9.3331 7.61151 9.5555C6.77977 9.77791 6.07027 10.3212 5.63875 11.0662L5.28125 11.6838C4.85106 12.4295 4.73435 13.3155 4.95675 14.1472C5.17916 14.979 5.7225 15.6885 6.4675 16.12L6.71125 16.2825C7.20245 16.5661 7.61088 16.9733 7.89596 17.4636C8.18104 17.9539 8.33283 18.5103 8.33625 19.0775V19.9062C8.33853 20.4789 8.18943 21.042 7.90407 21.5386C7.61871 22.0351 7.20722 22.4474 6.71125 22.7337L6.4675 22.88C5.7225 23.3115 5.17916 24.021 4.95675 24.8528C4.73435 25.6845 4.85106 26.5705 5.28125 27.3162L5.63875 27.9338C6.07027 28.6788 6.77977 29.2221 7.61151 29.4445C8.44324 29.6669 9.32923 29.5502 10.075 29.12L10.3188 28.99C10.8128 28.7048 11.3733 28.5546 11.9438 28.5546C12.5142 28.5546 13.0747 28.7048 13.5688 28.99L14.2675 29.3963C14.7611 29.6812 15.171 30.091 15.4563 30.5844C15.7415 31.0778 15.8919 31.6376 15.8925 32.2075V32.5C15.8925 33.362 16.2349 34.1886 16.8444 34.7981C17.4539 35.4076 18.2805 35.75 19.1425 35.75H19.8575C20.7195 35.75 21.5461 35.4076 22.1556 34.7981C22.7651 34.1886 23.1075 33.362 23.1075 32.5V32.2075C23.1081 31.6376 23.2585 31.0778 23.5438 30.5844C23.829 30.091 24.2389 29.6812 24.7325 29.3963L25.4313 28.99C25.9253 28.7048 26.4858 28.5546 27.0563 28.5546C27.6267 28.5546 28.1872 28.7048 28.6813 28.99L28.925 29.12C29.6708 29.5502 30.5568 29.6669 31.3885 29.4445C32.2202 29.2221 32.9297 28.6788 33.3613 27.9338L33.7188 27.3C34.149 26.5542 34.2657 25.6682 34.0433 24.8365C33.8208 24.0048 33.2775 23.2953 32.5325 22.8637L32.2888 22.7337C31.7928 22.4474 31.3813 22.0351 31.0959 21.5386C30.8106 21.042 30.6615 20.4789 30.6638 19.9062V19.0938C30.6615 18.5211 30.8106 17.958 31.0959 17.4614C31.3813 16.9649 31.7928 16.5526 32.2888 16.2663L32.5325 16.12C33.2775 15.6885 33.8208 14.979 34.0433 14.1472C34.2657 13.3155 34.149 12.4295 33.7188 11.6838L33.3613 11.0662C32.9297 10.3212 32.2202 9.77791 31.3885 9.5555C30.5568 9.3331 29.6708 9.4498 28.925 9.88L28.6813 10.01C28.1872 10.2952 27.6267 10.4454 27.0563 10.4454C26.4858 10.4454 25.9253 10.2952 25.4313 10.01L24.7325 9.60375C24.2389 9.31879 23.829 8.90904 23.5438 8.41561C23.2585 7.92218 23.1081 7.36243 23.1075 6.7925V6.5C23.1075 5.63805 22.7651 4.8114 22.1556 4.2019C21.5461 3.59241 20.7195 3.25 19.8575 3.25Z" stroke="#EBD3F8" stroke-width="2" stroke-linecap="round" stroke-linejoin="round"/>
<path d="M19.5 24.375C22.1924 24.375 24.375 22.1924 24.375 19.5C24.375 16.8076 22.1924 14.625 19.5 14.625C16.8076 14.625 14.625 16.8076 14.625 19.5C14.625 22.1924 16.8076 24.375 19.5 24.375Z" stroke="#EBD3F8" stroke-width="2" stroke-linecap="round" stroke-linejoin="round"/>
</svg>
